<?xml version="1.0" standalone="no"?>
<!DOCTYPE svg PUBLIC "-//W3C//DTD SVG 20010904//EN"
 "http://www.w3.org/TR/2001/REC-SVG-20010904/DTD/svg10.dtd">
<svg version="1.0" xmlns="http://www.w3.org/2000/svg"
 width="50px" height="39pt" viewBox="0 0 752.000000 1000.000000"
 preserveAspectRatio="xMidYMid meet">

<g transform="translate(0.000000,1000.000000) scale(0.100000,-0.100000)"
fill="#000000" stroke="none">
<path d="M177 9974 c-67 -21 -131 -86 -151 -155 -14 -47 -16 -522 -16 -4819 0
-4297 2 -4772 16 -4819 10 -37 29 -66 59 -96 82 -82 -279 -75 3675 -75 3954 0
3593 -7 3675 75 30 30 49 59 59 96 14 47 16 522 16 4819 0 4297 -2 4772 -16
4819 -10 37 -29 66 -59 96 -82 82 279 75 -3679 74 -3092 0 -3537 -2 -3579 -15z
m7138 -58 c26 -8 61 -27 77 -43 63 -60 58 332 58 -4873 0 -4156 -2 -4753 -15
-4796 -14 -49 -47 -89 -95 -115 -21 -12 -585 -14 -3545 -17 -2607 -2 -3534 0
-3573 8 -71 16 -117 57 -137 123 -13 45 -15 592 -15 4797 0 5206 -5 4813 59
4874 61 58 -188 55 3627 55 3032 1 3517 -1 3559 -13z"/>
<path d="M513 9708 c-22 -57 -91 -237 -154 -400 l-114 -298 -37 0 c-35 0 -38
-2 -38 -30 l0 -30 120 0 120 0 0 30 c0 29 -2 30 -46 30 -52 0 -51 -9 -5 110
l28 75 184 3 184 2 33 -87 c18 -49 32 -91 32 -95 0 -5 -20 -8 -45 -8 -43 0
-45 -1 -45 -30 l0 -30 155 0 155 0 0 29 c0 28 -3 30 -41 33 l-42 3 -152 395
-151 395 -51 3 -51 3 -39 -103z m217 -445 c0 -2 -70 -3 -155 -3 -92 0 -155 4
-155 10 0 5 31 89 68 187 38 98 72 187 76 198 5 15 28 -32 87 -185 43 -113 79
-206 79 -207z"/>
<path d="M559 8823 c-38 -54 -126 -158 -206 -246 -142 -156 -145 -305 -8 -368
52 -24 112 -24 175 0 27 11 50 15 50 10 0 -17 -34 -95 -57 -129 -13 -19 -23
-38 -23 -42 0 -5 52 -8 115 -8 l114 0 -39 63 c-22 35 -43 78 -46 96 l-7 33 31
-16 c74 -38 162 -30 223 21 42 36 59 74 59 136 0 75 -32 132 -145 262 -53 61
-117 138 -143 172 -26 34 -50 62 -53 63 -3 0 -21 -21 -40 -47z"/>
<path d="M3558 7177 c-349 -466 -638 -815 -1012 -1221 -466 -506 -571 -643
-701 -911 -111 -229 -157 -411 -158 -620 0 -262 79 -472 245 -650 169 -181
380 -287 653 -330 130 -21 351 -16 480 9 133 26 302 86 432 152 l123 62 0 -40
c0 -53 -26 -177 -57 -268 -39 -117 -126 -284 -298 -568 -87 -144 -156 -265
-153 -267 3 -3 320 -4 706 -3 l702 3 -132 205 c-237 370 -307 495 -364 647
-28 73 -63 221 -64 265 l0 27 113 -54 c123 -58 256 -103 387 -131 122 -26 413
-26 525 0 292 68 512 207 668 423 52 72 121 222 149 323 20 75 23 107 23 270
0 167 -3 195 -27 292 -51 199 -129 374 -256 568 -86 132 -170 237 -347 432
-450 495 -797 912 -1320 1586 -44 56 -82 102 -85 102 -3 0 -107 -136 -232
-303z"/>
<path d="M6850 1955 c0 -2 17 -31 39 -64 36 -56 57 -108 48 -117 -2 -2 -21 3
-43 12 -47 20 -134 20 -171 0 -76 -39 -113 -117 -94 -201 14 -63 48 -117 131
-210 35 -38 94 -109 132 -157 38 -48 73 -88 76 -88 4 1 37 40 74 88 37 48 103
127 147 175 98 108 131 170 131 247 0 128 -123 200 -262 153 -57 -19 -58 -19
-58 -1 0 21 32 87 61 130 11 14 19 29 19 32 0 3 -52 6 -115 6 -63 0 -115 -2
-115 -5z"/>
<path d="M6517 1043 c-4 -3 -7 -19 -7 -35 0 -26 2 -28 44 -28 l43 0 154 -400
154 -401 48 3 49 3 153 400 153 400 36 -3 c35 -3 36 -3 36 33 l0 36 -117 -3
-118 -3 0 -30 c0 -29 2 -30 43 -30 23 0 42 -4 42 -10 0 -5 -15 -47 -33 -93
l-32 -83 -179 0 c-98 0 -182 3 -186 8 -6 7 -70 166 -70 175 0 2 20 2 45 0 l45
-4 0 36 0 36 -148 0 c-82 0 -152 -3 -155 -7z m610 -345 c-8 -18 -42 -108 -78
-200 -35 -92 -67 -164 -70 -160 -8 8 -149 373 -149 384 0 5 70 8 155 8 l155 0
-13 -32z"/>
</g>
</svg>
